<svg height="200px" width="200px" version="1.1" id="_x32_" xmlns="http://www.w3.org/2000/svg" xmlns:xlink="http://www.w3.org/1999/xlink" viewBox="0 0 512 512" xml:space="preserve" fill="#71717A" stroke="#71717A"><g id="SVGRepo_bgCarrier" stroke-width="0"></g><g id="SVGRepo_tracerCarrier" stroke-linecap="round" stroke-linejoin="round"></g><g id="SVGRepo_iconCarrier"> <style type="text/css"> .st0{fill:#71717A;} </style> <g> <path class="st0" d="M416.686,307.449c-22.136,17.711-44.826,26.704-56.264,43.87c-8.216,12.313-8.567,57.76-8.112,82.453 l-26.24-16.395l-82.924,28.925l-59.622-26.338c0-31.504,0-72.943,0-72.943c0-26.697-27.034-63.516-40.198-88.569 c-25.501-48.497-47.742-97.494-52.774-122.644c-6.526-32.663,26.226-36.244,32.424-11.454c7.85,31.414,28.514,52.647,36.236,61.513 c8.493,9.748,19.258,5.891,14.16-6.871c-8.822-15.498-38.696-75.246-41.335-117.575c-2.863-45.776,44.34-51.494,45.776-15.019 c2.841,72.532,34.031,101.838,44.049,116.148c6.975,9.958,13.352,8.821,10.01-1.668c-17.718-55.689-18.78-102.795-9.24-137.125 c9.382-33.784,54.358-31.946,46.934,8.149c-11.61,62.723-0.972,92.74,10.466,120.393c2.452,5.914,8.298,2.572,8.59,0.008 c4.762-41.963,34.718-94.527,45.095-108.051c15.737-20.499,49.596-1.906,36.236,24.798 c-31.235,62.462-53.872,166.857-13.352,188.814c22.891,12.395,48.639-9.539,37.2-53.409c-3.812-26.697,36.722-38.688,49.589,9.532 C451.023,242.602,445.296,284.565,416.686,307.449z"></path> <polygon class="st0" points="454.35,512 57.65,512 160.639,433.801 242.651,470.038 324.663,441.434 385.698,479.577 410.488,468.131 "></polygon> <polygon class="st0" points="149.201,391.846 148.805,382.583 143.161,372.917 131.879,371.706 131.879,383.787 140.342,391.039 "></polygon> <polygon class="st0" points="101.669,378.284 101.393,371.915 97.52,365.269 89.767,364.432 89.767,372.737 95.576,377.731 "></polygon> <polygon class="st0" points="404.739,385.528 413.456,380.737 418.802,371.833 415.063,361.68 407.416,363.28 401.353,368.976 401.173,378.411 "></polygon> <polygon class="st0" points="130.645,344.717 129.966,328.337 120.419,314.693 108.135,321.519 114.273,333.802 "></polygon> <polygon class="st0" points="393.42,435.88 400.851,430.011 395.917,422.916 387.888,427.506 386.461,434.452 "></polygon> <polygon class="st0" points="437.087,415.739 447.203,407.74 440.489,398.096 429.552,404.338 427.615,413.795 "></polygon> </g> </g></svg>
