<svg width="38" height="38" viewBox="0 0 38 38" fill="none" xmlns="http://www.w3.org/2000/svg">
<g clip-path="url(#clip0_2001_2145)">
<path d="M38 0H0V38H38V0Z" fill="#FAFAFA"/>
<path d="M7.00001 7.02226C7.00001 7.08265 7.74866 8.18168 8.65429 9.47395L10.5 12H13.0919H14.5H16C20.83 12.0604 18.9566 17.8188 19.5 18C20.0917 18.2053 19.1498 13.0773 19.5 13.5C19.8743 13.9589 22.5 14.2874 22.5 15C22.5 16.1353 22.2607 16.2271 21.5 17C20.4253 18.0749 22.1467 18.9155 18.5 19H17H15.2443L20.0048 25.742L24.5571 32.3H27.6121C29.2784 32.3 30.655 32.2758 30.655 32.2396C30.655 32.1913 26.2355 25.8628 24.8348 23.9184L24.4967 23.4353L25.0763 23.2058C25.3903 23.073 26.0906 22.6623 26.6461 22.3C28.2883 21.2251 29.5079 19.4981 30.0029 17.5657C30.2807 16.5029 30.2807 14.486 30.0029 13.4594C29.0732 9.94496 26.1631 7.56574 22.1783 7.0585C21.0312 6.91357 6.98793 6.88941 7.00001 7.02226Z" fill="url(#paint0_linear_2001_2145)"/>
<path d="M3 15.5C3 13.567 4.567 12 6.5 12H22.5C24.433 12 26 13.567 26 15.5C26 17.433 24.433 19 22.5 19H6.5C4.567 19 3 17.433 3 15.5Z" fill="#FAFAFA"/>
</g>
<defs>
<linearGradient id="paint0_linear_2001_2145" x1="7" y1="6.93499" x2="30.6698" y2="6.94878" gradientUnits="userSpaceOnUse">
<stop stop-color="#C58DE7"/>
<stop offset="1" stop-color="#B063DE"/>
</linearGradient>
<clipPath id="clip0_2001_2145">
<rect width="38" height="38" rx="8" fill="white"/>
</clipPath>
</defs>
</svg>
